<?xml version="1.0" encoding="utf-8" standalone="no"?>
<!DOCTYPE svg PUBLIC "-//W3C//DTD SVG 1.1//EN"
  "http://www.w3.org/Graphics/SVG/1.1/DTD/svg11.dtd">
<svg height="366.6125pt" version="1.1" viewBox="0 0 415.42 366.6125" width="415.42pt" xmlns="http://www.w3.org/2000/svg" xmlns:xlink="http://www.w3.org/1999/xlink">
 <metadata>
  <rdf:RDF xmlns:cc="http://creativecommons.org/ns#" xmlns:dc="http://purl.org/dc/elements/1.1/" xmlns:rdf="http://www.w3.org/1999/02/22-rdf-syntax-ns#">
   <cc:Work>
    <dc:type rdf:resource="http://purl.org/dc/dcmitype/StillImage"/>
    <dc:date>2021-07-20T20:49:35.263766</dc:date>
    <dc:format>image/svg+xml</dc:format>
    <dc:creator>
     <cc:Agent>
      <dc:title>Matplotlib v3.4.2, https://matplotlib.org/</dc:title>
     </cc:Agent>
    </dc:creator>
   </cc:Work>
  </rdf:RDF>
 </metadata>
 <defs>
  <style type="text/css">*{stroke-linecap:butt;stroke-linejoin:round;}</style>
 </defs>
 <g id="figure_1">
  <g id="patch_1">
   <path d="M 0 366.6125 
L 415.42 366.6125 
L 415.42 0 
L 0 0 
z
" style="fill:none;"/>
  </g>
  <g id="axes_1">
   <g id="patch_2">
    <path d="M 73.42 311.2 
L 408.22 311.2 
L 408.22 39.4 
L 73.42 39.4 
z
" style="fill:none;"/>
   </g>
   <g id="matplotlib.axis_1">
    <g id="xtick_1">
     <g id="line2d_1">
      <defs>
       <path d="M 0 0 
L 0 -12 
" id="m81314e4692" style="stroke:#000000;stroke-width:0.2;"/>
      </defs>
      <g>
       <use style="stroke:#000000;stroke-width:0.2;" x="88.638182" xlink:href="#m81314e4692" y="311.2"/>
      </g>
     </g>
     <g id="text_1">
      <!-- -0.6 -->
      <g transform="translate(75.184432 328.5275)scale(0.16 -0.16)">
       <defs>
        <path d="M 2200 1538 
L 400 1538 
L 400 2038 
L 2200 2038 
L 2200 1538 
z
" id="Seaford-2d" transform="scale(0.015625)"/>
        <path d="M 591 3513 
Q 775 3922 1061 4142 
Q 1347 4363 1694 4363 
Q 2328 4363 2689 3795 
Q 3050 3228 3050 2206 
Q 3050 1784 2983 1418 
Q 2916 1053 2784 763 
Q 2600 353 2314 132 
Q 2028 -88 1681 -88 
Q 1047 -88 686 479 
Q 325 1047 325 2069 
Q 325 2491 392 2856 
Q 459 3222 591 3513 
z
M 1675 3950 
Q 1303 3950 1098 3462 
Q 894 2975 894 2088 
Q 894 1231 1101 778 
Q 1309 325 1700 325 
Q 2072 325 2276 812 
Q 2481 1300 2481 2188 
Q 2481 3044 2273 3497 
Q 2066 3950 1675 3950 
z
" id="Seaford-30" transform="scale(0.015625)"/>
        <path d="M 706 -88 
Q 538 -88 425 25 
Q 313 138 313 313 
Q 313 488 425 600 
Q 538 713 706 713 
Q 875 713 987 600 
Q 1100 488 1100 313 
Q 1100 138 987 25 
Q 875 -88 706 -88 
z
" id="Seaford-2e" transform="scale(0.015625)"/>
        <path d="M 2784 2306 
Q 2931 2131 3009 1906 
Q 3088 1681 3088 1425 
Q 3088 1119 2992 847 
Q 2897 575 2716 366 
Q 2525 147 2264 29 
Q 2003 -88 1706 -88 
Q 1091 -88 711 376 
Q 331 841 331 1613 
Q 331 2122 486 2525 
Q 641 2928 966 3291 
Q 1219 3575 1586 3844 
Q 1953 4113 2444 4375 
L 2644 4031 
Q 1878 3591 1501 3203 
Q 1125 2816 975 2341 
Q 1244 2534 1464 2614 
Q 1684 2694 1950 2694 
Q 2194 2694 2409 2592 
Q 2625 2491 2784 2306 
z
M 922 1988 
Q 909 1909 904 1820 
Q 900 1731 900 1631 
Q 900 1006 1117 665 
Q 1334 325 1725 325 
Q 2091 325 2305 597 
Q 2519 869 2519 1325 
Q 2519 1756 2306 2009 
Q 2094 2263 1725 2263 
Q 1525 2263 1331 2195 
Q 1138 2128 922 1988 
z
" id="Seaford-36" transform="scale(0.015625)"/>
       </defs>
       <use xlink:href="#Seaford-2d"/>
       <use x="40.625" xlink:href="#Seaford-30"/>
       <use x="93.359375" xlink:href="#Seaford-2e"/>
       <use x="115.429688" xlink:href="#Seaford-36"/>
      </g>
     </g>
    </g>
    <g id="xtick_2">
     <g id="line2d_2">
      <g>
       <use style="stroke:#000000;stroke-width:0.2;" x="164.729091" xlink:href="#m81314e4692" y="311.2"/>
      </g>
     </g>
     <g id="text_2">
      <!-- -0.3 -->
      <g transform="translate(151.275341 328.5275)scale(0.16 -0.16)">
       <defs>
        <path d="M 1806 4356 
Q 2284 4356 2579 4097 
Q 2875 3838 2875 3419 
Q 2875 3094 2614 2800 
Q 2353 2506 1888 2297 
Q 2444 2156 2712 1886 
Q 2981 1616 2981 1200 
Q 2981 959 2870 720 
Q 2759 481 2563 294 
Q 2372 113 2131 16 
Q 1891 -81 1631 -81 
Q 1269 -81 994 8 
Q 719 97 206 400 
L 463 788 
Q 850 544 1103 450 
Q 1356 356 1625 356 
Q 1972 356 2205 590 
Q 2438 825 2438 1163 
Q 2438 1534 2113 1742 
Q 1788 1950 1106 2013 
L 1063 2313 
Q 1728 2556 2029 2807 
Q 2331 3059 2331 3363 
Q 2331 3613 2167 3766 
Q 2003 3919 1744 3919 
Q 1594 3919 1450 3862 
Q 1306 3806 1147 3681 
Q 1066 3619 969 3531 
Q 872 3444 663 3238 
L 350 3519 
Q 781 3984 1112 4170 
Q 1444 4356 1806 4356 
z
" id="Seaford-33" transform="scale(0.015625)"/>
       </defs>
       <use xlink:href="#Seaford-2d"/>
       <use x="40.625" xlink:href="#Seaford-30"/>
       <use x="93.359375" xlink:href="#Seaford-2e"/>
       <use x="115.429688" xlink:href="#Seaford-33"/>
      </g>
     </g>
    </g>
    <g id="xtick_3">
     <g id="line2d_3">
      <g>
       <use style="stroke:#000000;stroke-width:0.2;" x="240.82" xlink:href="#m81314e4692" y="311.2"/>
      </g>
     </g>
     <g id="text_3">
      <!-- 0.0 -->
      <g transform="translate(230.61625 328.5275)scale(0.16 -0.16)">
       <use xlink:href="#Seaford-30"/>
       <use x="52.734375" xlink:href="#Seaford-2e"/>
       <use x="74.804688" xlink:href="#Seaford-30"/>
      </g>
     </g>
    </g>
    <g id="xtick_4">
     <g id="line2d_4">
      <g>
       <use style="stroke:#000000;stroke-width:0.2;" x="316.910909" xlink:href="#m81314e4692" y="311.2"/>
      </g>
     </g>
     <g id="text_4">
      <!-- 0.3 -->
      <g transform="translate(306.707159 328.5275)scale(0.16 -0.16)">
       <use xlink:href="#Seaford-30"/>
       <use x="52.734375" xlink:href="#Seaford-2e"/>
       <use x="74.804688" xlink:href="#Seaford-33"/>
      </g>
     </g>
    </g>
    <g id="xtick_5">
     <g id="line2d_5">
      <g>
       <use style="stroke:#000000;stroke-width:0.2;" x="393.001818" xlink:href="#m81314e4692" y="311.2"/>
      </g>
     </g>
     <g id="text_5">
      <!-- 0.6 -->
      <g transform="translate(382.798068 328.5275)scale(0.16 -0.16)">
       <use xlink:href="#Seaford-30"/>
       <use x="52.734375" xlink:href="#Seaford-2e"/>
       <use x="74.804688" xlink:href="#Seaford-36"/>
      </g>
     </g>
    </g>
    <g id="xtick_6">
     <g id="line2d_6">
      <defs>
       <path d="M 0 0 
L 0 -5 
" id="m4571a01de6" style="stroke:#000000;stroke-width:0.2;"/>
      </defs>
      <g>
       <use style="stroke:#000000;stroke-width:0.2;" x="114.001818" xlink:href="#m4571a01de6" y="311.2"/>
      </g>
     </g>
    </g>
    <g id="xtick_7">
     <g id="line2d_7">
      <g>
       <use style="stroke:#000000;stroke-width:0.2;" x="139.365455" xlink:href="#m4571a01de6" y="311.2"/>
      </g>
     </g>
    </g>
    <g id="xtick_8">
     <g id="line2d_8">
      <g>
       <use style="stroke:#000000;stroke-width:0.2;" x="190.092727" xlink:href="#m4571a01de6" y="311.2"/>
      </g>
     </g>
    </g>
    <g id="xtick_9">
     <g id="line2d_9">
      <g>
       <use style="stroke:#000000;stroke-width:0.2;" x="215.456364" xlink:href="#m4571a01de6" y="311.2"/>
      </g>
     </g>
    </g>
    <g id="xtick_10">
     <g id="line2d_10">
      <g>
       <use style="stroke:#000000;stroke-width:0.2;" x="266.183636" xlink:href="#m4571a01de6" y="311.2"/>
      </g>
     </g>
    </g>
    <g id="xtick_11">
     <g id="line2d_11">
      <g>
       <use style="stroke:#000000;stroke-width:0.2;" x="291.547273" xlink:href="#m4571a01de6" y="311.2"/>
      </g>
     </g>
    </g>
    <g id="xtick_12">
     <g id="line2d_12">
      <g>
       <use style="stroke:#000000;stroke-width:0.2;" x="342.274545" xlink:href="#m4571a01de6" y="311.2"/>
      </g>
     </g>
    </g>
    <g id="xtick_13">
     <g id="line2d_13">
      <g>
       <use style="stroke:#000000;stroke-width:0.2;" x="367.638182" xlink:href="#m4571a01de6" y="311.2"/>
      </g>
     </g>
    </g>
    <g id="text_6">
     <!-- BDM Distortion Factor (for 1 Te near V$_{Cd}^{-1}$) -->
     <g transform="translate(94.26 355.4125)scale(0.16 -0.16)">
      <defs>
       <path d="M 3713 1144 
Q 3713 591 3261 295 
Q 2809 0 1969 0 
L 638 0 
L 638 4275 
L 2106 4275 
Q 2772 4275 3136 4009 
Q 3500 3744 3500 3256 
Q 3500 2894 3284 2634 
Q 3069 2375 2656 2241 
Q 3153 2106 3433 1818 
Q 3713 1531 3713 1144 
z
M 2938 3194 
Q 2938 3503 2697 3676 
Q 2456 3850 2019 3850 
L 1188 3850 
L 1188 2413 
L 1838 2413 
Q 2344 2413 2641 2623 
Q 2938 2834 2938 3194 
z
M 3150 1175 
Q 3150 1559 2812 1779 
Q 2475 2000 1894 2000 
L 1188 2000 
L 1188 425 
L 2025 425 
Q 2544 425 2847 626 
Q 3150 828 3150 1175 
z
" id="Seaford-42" transform="scale(0.015625)"/>
       <path d="M 638 0 
L 638 4275 
L 2163 4275 
Q 3206 4275 3800 3723 
Q 4394 3172 4394 2188 
Q 4394 1697 4217 1287 
Q 4041 878 3700 581 
Q 3381 300 2950 150 
Q 2519 0 2038 0 
L 638 0 
z
M 3813 2163 
Q 3813 2953 3356 3395 
Q 2900 3838 2094 3838 
L 1188 3838 
L 1188 438 
L 2063 438 
Q 2859 438 3336 898 
Q 3813 1359 3813 2163 
z
" id="Seaford-44" transform="scale(0.015625)"/>
       <path d="M 638 0 
L 638 4275 
L 1444 4275 
L 3059 763 
L 4675 4275 
L 5463 4275 
L 5463 0 
L 4913 0 
L 4913 3681 
L 3163 -13 
L 2881 -13 
L 1131 3681 
L 1131 0 
L 638 0 
z
" id="Seaford-4d" transform="scale(0.015625)"/>
       <path id="Seaford-20" transform="scale(0.015625)"/>
       <path d="M 788 3831 
Q 634 3831 532 3934 
Q 431 4038 431 4194 
Q 431 4350 532 4453 
Q 634 4556 788 4556 
Q 941 4556 1042 4453 
Q 1144 4350 1144 4194 
Q 1144 4038 1042 3934 
Q 941 3831 788 3831 
z
M 1044 0 
L 531 0 
L 531 3063 
L 1044 3063 
L 1044 0 
z
" id="Seaford-69" transform="scale(0.015625)"/>
       <path d="M 1469 350 
Q 1700 350 1881 501 
Q 2063 653 2063 856 
Q 2063 1009 1927 1111 
Q 1791 1213 1350 1356 
Q 819 1528 612 1723 
Q 406 1919 406 2231 
Q 406 2622 703 2880 
Q 1000 3138 1456 3138 
Q 1663 3138 1891 3080 
Q 2119 3022 2450 2888 
L 2288 2456 
Q 1959 2600 1764 2656 
Q 1569 2713 1400 2713 
Q 1175 2713 1040 2600 
Q 906 2488 906 2300 
Q 906 2147 1042 2048 
Q 1178 1950 1638 1800 
Q 2175 1625 2369 1425 
Q 2563 1225 2563 906 
Q 2563 488 2222 206 
Q 1881 -75 1394 -75 
Q 1113 -75 842 31 
Q 572 138 225 388 
L 488 769 
Q 797 550 1031 450 
Q 1266 350 1469 350 
z
" id="Seaford-73" transform="scale(0.015625)"/>
       <path d="M 1181 2638 
L 1181 731 
Q 1181 556 1253 472 
Q 1325 388 1475 388 
Q 1581 388 1715 425 
Q 1850 463 2075 556 
L 2225 181 
Q 1938 53 1736 -1 
Q 1534 -56 1369 -56 
Q 1031 -56 850 131 
Q 669 319 669 675 
L 669 2638 
L 250 2638 
L 250 3063 
L 669 3063 
L 669 3844 
L 1181 3844 
L 1181 3063 
L 2156 3063 
L 2156 2638 
L 1181 2638 
z
" id="Seaford-74" transform="scale(0.015625)"/>
       <path d="M 1788 3150 
Q 2425 3150 2819 2722 
Q 3213 2294 3213 1588 
Q 3213 1259 3108 962 
Q 3003 666 2806 434 
Q 2594 184 2309 48 
Q 2025 -88 1713 -88 
Q 1075 -88 681 340 
Q 288 769 288 1475 
Q 288 1803 392 2100 
Q 497 2397 694 2628 
Q 906 2878 1190 3014 
Q 1475 3150 1788 3150 
z
M 1763 2725 
Q 1359 2725 1089 2378 
Q 819 2031 819 1513 
Q 819 981 1072 659 
Q 1325 338 1738 338 
Q 2141 338 2411 684 
Q 2681 1031 2681 1550 
Q 2681 2081 2428 2403 
Q 2175 2725 1763 2725 
z
" id="Seaford-6f" transform="scale(0.015625)"/>
       <path d="M 1031 0 
L 519 0 
L 519 3063 
L 1031 3063 
L 1031 2416 
Q 1297 2809 1494 2961 
Q 1691 3113 1944 3113 
Q 1991 3113 2047 3105 
Q 2103 3097 2181 3081 
L 2181 2581 
L 2156 2550 
Q 2081 2575 2003 2587 
Q 1925 2600 1844 2600 
Q 1613 2600 1433 2484 
Q 1253 2369 1031 2059 
L 1031 0 
z
" id="Seaford-72" transform="scale(0.015625)"/>
       <path d="M 1031 0 
L 519 0 
L 519 3063 
L 1031 3063 
L 1031 2556 
Q 1444 2869 1719 2997 
Q 1994 3125 2219 3125 
Q 2619 3125 2847 2879 
Q 3075 2634 3075 2200 
L 3075 0 
L 2563 0 
L 2563 2056 
Q 2563 2347 2422 2505 
Q 2281 2663 2019 2663 
Q 1838 2663 1620 2566 
Q 1403 2469 1031 2209 
L 1031 0 
z
" id="Seaford-6e" transform="scale(0.015625)"/>
       <path d="M 638 0 
L 638 4275 
L 3350 4275 
L 3350 3838 
L 1188 3838 
L 1188 2269 
L 3081 2269 
L 3081 1831 
L 1188 1831 
L 1188 0 
L 638 0 
z
" id="Seaford-46" transform="scale(0.015625)"/>
       <path d="M 1719 3144 
Q 2163 3144 2409 2889 
Q 2656 2634 2656 2188 
L 2656 838 
Q 2656 669 2689 525 
Q 2722 381 2863 0 
L 2369 0 
Q 2284 197 2245 298 
Q 2206 400 2184 478 
Q 1697 147 1487 48 
Q 1278 -50 1081 -50 
Q 716 -50 483 183 
Q 250 416 250 781 
Q 250 1094 423 1270 
Q 597 1447 984 1566 
Q 1200 1628 1487 1679 
Q 1775 1731 2144 1769 
L 2144 2119 
Q 2144 2388 2009 2550 
Q 1875 2713 1656 2713 
Q 1481 2713 1300 2622 
Q 1119 2531 706 2213 
L 438 2531 
Q 928 2922 1176 3033 
Q 1425 3144 1719 3144 
z
M 1356 1291 
Q 1059 1213 923 1105 
Q 788 997 788 825 
Q 788 625 898 506 
Q 1009 388 1194 388 
Q 1353 388 1564 478 
Q 1775 569 2144 794 
L 2144 1431 
Q 1900 1403 1703 1367 
Q 1506 1331 1356 1291 
z
" id="Seaford-61" transform="scale(0.015625)"/>
       <path d="M 1744 2706 
Q 1341 2706 1083 2364 
Q 825 2022 825 1475 
Q 825 969 1083 659 
Q 1341 350 1750 350 
Q 1941 350 2098 419 
Q 2256 488 2588 731 
L 2775 419 
Q 2391 128 2145 20 
Q 1900 -88 1663 -88 
Q 1369 -88 1108 29 
Q 847 147 656 363 
Q 475 566 381 834 
Q 288 1103 288 1413 
Q 288 1750 383 2048 
Q 478 2347 663 2584 
Q 869 2850 1150 2997 
Q 1431 3144 1731 3144 
Q 1972 3144 2195 3080 
Q 2419 3016 2725 2850 
L 2538 2438 
Q 2281 2578 2092 2642 
Q 1903 2706 1744 2706 
z
" id="Seaford-63" transform="scale(0.015625)"/>
       <path d="M 834 275 
Q 600 644 487 1026 
Q 375 1409 375 1838 
Q 375 2266 487 2648 
Q 600 3031 834 3400 
Q 1009 3675 1267 3965 
Q 1525 4256 1931 4631 
L 2150 4394 
Q 1466 3706 1155 3093 
Q 844 2481 844 1838 
Q 844 1194 1155 581 
Q 1466 -31 2150 -719 
L 1931 -956 
Q 1525 -581 1267 -290 
Q 1009 0 834 275 
z
" id="Seaford-28" transform="scale(0.015625)"/>
       <path d="M 694 2638 
L 250 2638 
L 250 3063 
L 694 3063 
L 694 3419 
Q 694 3944 978 4244 
Q 1263 4544 1750 4544 
Q 1916 4544 2055 4523 
Q 2194 4503 2319 4463 
L 2213 4019 
Q 2063 4063 1934 4084 
Q 1806 4106 1688 4106 
Q 1434 4106 1320 3961 
Q 1206 3816 1206 3494 
L 1206 3063 
L 2044 3063 
L 2044 2638 
L 1206 2638 
L 1206 0 
L 694 0 
L 694 2638 
z
" id="Seaford-66" transform="scale(0.015625)"/>
       <path d="M 3025 0 
L 475 0 
L 475 419 
L 1531 419 
L 1531 3700 
L 500 3381 
L 400 3694 
Q 988 3941 1281 4081 
Q 1575 4222 1788 4363 
L 2056 4269 
L 2056 419 
L 3025 419 
L 3025 0 
z
" id="Seaford-31" transform="scale(0.015625)"/>
       <path d="M 1763 3838 
L 213 3838 
L 213 4275 
L 3863 4275 
L 3863 3838 
L 2313 3838 
L 2313 0 
L 1763 0 
L 1763 3838 
z
" id="Seaford-54" transform="scale(0.015625)"/>
       <path d="M 1731 350 
Q 1947 350 2151 436 
Q 2356 522 2756 800 
L 3006 475 
Q 2513 116 2248 14 
Q 1984 -88 1663 -88 
Q 1050 -88 669 348 
Q 288 784 288 1494 
Q 288 1828 380 2122 
Q 472 2416 650 2638 
Q 847 2884 1120 3017 
Q 1394 3150 1713 3150 
Q 2300 3150 2640 2723 
Q 2981 2297 2988 1575 
L 2931 1525 
L 813 1525 
Q 816 991 1067 670 
Q 1319 350 1731 350 
z
M 1688 2744 
Q 1366 2744 1142 2523 
Q 919 2303 847 1913 
L 2425 1913 
Q 2372 2316 2181 2530 
Q 1991 2744 1688 2744 
z
" id="Seaford-65" transform="scale(0.015625)"/>
       <path d="M 1969 0 
L 281 4275 
L 856 4275 
L 2197 709 
L 3519 4275 
L 4069 4275 
L 2381 0 
L 1969 0 
z
" id="Seaford-56" transform="scale(0.015625)"/>
       <path d="M 2888 1938 
L 488 1938 
L 488 2363 
L 2888 2363 
L 2888 1938 
z
" id="Seaford-2212" transform="scale(0.015625)"/>
       <path d="M 3744 856 
L 3975 469 
Q 3459 150 3082 31 
Q 2706 -88 2275 -88 
Q 1834 -88 1465 73 
Q 1097 234 838 541 
Q 597 825 470 1211 
Q 344 1597 344 2050 
Q 344 2503 495 2918 
Q 647 3334 931 3653 
Q 1231 3994 1628 4175 
Q 2025 4356 2469 4356 
Q 2850 4356 3134 4286 
Q 3419 4216 3925 3975 
L 3706 3544 
Q 3219 3778 2969 3845 
Q 2719 3913 2419 3913 
Q 2091 3913 1805 3758 
Q 1519 3603 1309 3313 
Q 1125 3059 1025 2739 
Q 925 2419 925 2075 
Q 925 1313 1314 831 
Q 1703 350 2338 350 
Q 2678 350 3018 472 
Q 3359 594 3744 856 
z
" id="Seaford-43" transform="scale(0.015625)"/>
       <path d="M 2456 4531 
L 2969 4531 
L 2969 0 
L 2456 0 
L 2456 259 
Q 2206 88 2003 12 
Q 1800 -63 1600 -63 
Q 1022 -63 655 340 
Q 288 744 288 1400 
Q 288 1763 406 2072 
Q 525 2381 753 2613 
Q 984 2850 1298 2981 
Q 1613 3113 1950 3113 
Q 2094 3113 2219 3100 
Q 2344 3088 2456 3063 
L 2456 4531 
z
M 2025 2713 
Q 1500 2713 1162 2361 
Q 825 2009 825 1438 
Q 825 947 1065 661 
Q 1306 375 1725 375 
Q 1913 375 2073 423 
Q 2234 472 2456 600 
L 2456 2659 
Q 2347 2688 2239 2700 
Q 2131 2713 2025 2713 
z
" id="Seaford-64" transform="scale(0.015625)"/>
       <path d="M 1453 3400 
Q 1688 3031 1800 2648 
Q 1913 2266 1913 1838 
Q 1913 1409 1800 1026 
Q 1688 644 1453 275 
Q 1278 0 1020 -290 
Q 763 -581 356 -956 
L 138 -719 
Q 822 -31 1133 581 
Q 1444 1194 1444 1838 
Q 1444 2481 1133 3093 
Q 822 3706 138 4394 
L 356 4631 
Q 763 4256 1020 3965 
Q 1278 3675 1453 3400 
z
" id="Seaford-29" transform="scale(0.015625)"/>
      </defs>
      <use transform="translate(0 0.151563)" xlink:href="#Seaford-42"/>
      <use transform="translate(63.183594 0.151563)" xlink:href="#Seaford-44"/>
      <use transform="translate(137.109375 0.151563)" xlink:href="#Seaford-4d"/>
      <use transform="translate(232.421875 0.151563)" xlink:href="#Seaford-20"/>
      <use transform="translate(254.554688 0.151563)" xlink:href="#Seaford-44"/>
      <use transform="translate(327.980469 0.151563)" xlink:href="#Seaford-69"/>
      <use transform="translate(353.089844 0.151563)" xlink:href="#Seaford-73"/>
      <use transform="translate(397.328125 0.151563)" xlink:href="#Seaford-74"/>
      <use transform="translate(435.511719 0.151563)" xlink:href="#Seaford-6f"/>
      <use transform="translate(490.199219 0.151563)" xlink:href="#Seaford-72"/>
      <use transform="translate(527.210938 0.151563)" xlink:href="#Seaford-74"/>
      <use transform="translate(565.394531 0.151563)" xlink:href="#Seaford-69"/>
      <use transform="translate(590.003906 0.151563)" xlink:href="#Seaford-6f"/>
      <use transform="translate(644.691406 0.151563)" xlink:href="#Seaford-6e"/>
      <use transform="translate(700.648438 0.151563)" xlink:href="#Seaford-20"/>
      <use transform="translate(722.78125 0.151563)" xlink:href="#Seaford-46"/>
      <use transform="translate(780.203125 0.151563)" xlink:href="#Seaford-61"/>
      <use transform="translate(829.421875 0.151563)" xlink:href="#Seaford-63"/>
      <use transform="translate(876.296875 0.151563)" xlink:href="#Seaford-74"/>
      <use transform="translate(914.480469 0.151563)" xlink:href="#Seaford-6f"/>
      <use transform="translate(969.167969 0.151563)" xlink:href="#Seaford-72"/>
      <use transform="translate(1005.179688 0.151563)" xlink:href="#Seaford-20"/>
      <use transform="translate(1028.8125 0.151563)" xlink:href="#Seaford-28"/>
      <use transform="translate(1064.554688 0.151563)" xlink:href="#Seaford-66"/>
      <use transform="translate(1098.832031 0.151563)" xlink:href="#Seaford-6f"/>
      <use transform="translate(1153.519531 0.151563)" xlink:href="#Seaford-72"/>
      <use transform="translate(1189.53125 0.151563)" xlink:href="#Seaford-20"/>
      <use transform="translate(1211.164062 0.151563)" xlink:href="#Seaford-31"/>
      <use transform="translate(1261.898438 0.151563)" xlink:href="#Seaford-20"/>
      <use transform="translate(1285.53125 0.151563)" xlink:href="#Seaford-54"/>
      <use transform="translate(1349.203125 0.151563)" xlink:href="#Seaford-65"/>
      <use transform="translate(1400.375 0.151563)" xlink:href="#Seaford-20"/>
      <use transform="translate(1424.007812 0.151563)" xlink:href="#Seaford-6e"/>
      <use transform="translate(1479.964844 0.151563)" xlink:href="#Seaford-65"/>
      <use transform="translate(1531.136719 0.151563)" xlink:href="#Seaford-61"/>
      <use transform="translate(1580.355469 0.151563)" xlink:href="#Seaford-72"/>
      <use transform="translate(1616.367188 0.151563)" xlink:href="#Seaford-20"/>
      <use transform="translate(1640 0.151563)" xlink:href="#Seaford-56"/>
      <use transform="translate(1708.806289 38.279688)scale(0.7)" xlink:href="#Seaford-2212"/>
      <use transform="translate(1745.720352 38.279688)scale(0.7)" xlink:href="#Seaford-31"/>
      <use transform="translate(1708.806289 -23.778125)scale(0.7)" xlink:href="#Seaford-43"/>
      <use transform="translate(1755.290664 -23.778125)scale(0.7)" xlink:href="#Seaford-64"/>
      <use transform="translate(1795.828164 0.151563)" xlink:href="#Seaford-29"/>
     </g>
    </g>
   </g>
   <g id="matplotlib.axis_2">
    <g id="ytick_1">
     <g id="line2d_14">
      <defs>
       <path d="M 0 0 
L 12 0 
" id="m0265e67ab4" style="stroke:#000000;stroke-width:0.2;"/>
      </defs>
      <g>
       <use style="stroke:#000000;stroke-width:0.2;" x="73.42" xlink:href="#m0265e67ab4" y="265.835698"/>
      </g>
     </g>
     <g id="text_7">
      <!-- -0.00 -->
      <g transform="translate(32.075 271.499448)scale(0.16 -0.16)">
       <use xlink:href="#Seaford-2d"/>
       <use x="40.625" xlink:href="#Seaford-30"/>
       <use x="93.359375" xlink:href="#Seaford-2e"/>
       <use x="115.429688" xlink:href="#Seaford-30"/>
       <use x="168.164062" xlink:href="#Seaford-30"/>
      </g>
     </g>
    </g>
    <g id="ytick_2">
     <g id="line2d_15">
      <g>
       <use style="stroke:#000000;stroke-width:0.2;" x="73.42" xlink:href="#m0265e67ab4" y="216.117717"/>
      </g>
     </g>
     <g id="text_8">
      <!-- -0.00 -->
      <g transform="translate(32.075 221.781467)scale(0.16 -0.16)">
       <use xlink:href="#Seaford-2d"/>
       <use x="40.625" xlink:href="#Seaford-30"/>
       <use x="93.359375" xlink:href="#Seaford-2e"/>
       <use x="115.429688" xlink:href="#Seaford-30"/>
       <use x="168.164062" xlink:href="#Seaford-30"/>
      </g>
     </g>
    </g>
    <g id="ytick_3">
     <g id="line2d_16">
      <g>
       <use style="stroke:#000000;stroke-width:0.2;" x="73.42" xlink:href="#m0265e67ab4" y="166.399736"/>
      </g>
     </g>
     <g id="text_9">
      <!-- -0.00 -->
      <g transform="translate(32.075 172.063486)scale(0.16 -0.16)">
       <use xlink:href="#Seaford-2d"/>
       <use x="40.625" xlink:href="#Seaford-30"/>
       <use x="93.359375" xlink:href="#Seaford-2e"/>
       <use x="115.429688" xlink:href="#Seaford-30"/>
       <use x="168.164062" xlink:href="#Seaford-30"/>
      </g>
     </g>
    </g>
    <g id="ytick_4">
     <g id="line2d_17">
      <g>
       <use style="stroke:#000000;stroke-width:0.2;" x="73.42" xlink:href="#m0265e67ab4" y="116.681754"/>
      </g>
     </g>
     <g id="text_10">
      <!-- -0.00 -->
      <g transform="translate(32.075 122.345504)scale(0.16 -0.16)">
       <use xlink:href="#Seaford-2d"/>
       <use x="40.625" xlink:href="#Seaford-30"/>
       <use x="93.359375" xlink:href="#Seaford-2e"/>
       <use x="115.429688" xlink:href="#Seaford-30"/>
       <use x="168.164062" xlink:href="#Seaford-30"/>
      </g>
     </g>
    </g>
    <g id="ytick_5">
     <g id="line2d_18">
      <g>
       <use style="stroke:#000000;stroke-width:0.2;" x="73.42" xlink:href="#m0265e67ab4" y="66.963773"/>
      </g>
     </g>
     <g id="text_11">
      <!-- 0.00 -->
      <g transform="translate(38.575 72.627523)scale(0.16 -0.16)">
       <use xlink:href="#Seaford-30"/>
       <use x="52.734375" xlink:href="#Seaford-2e"/>
       <use x="74.804688" xlink:href="#Seaford-30"/>
       <use x="127.539062" xlink:href="#Seaford-30"/>
      </g>
     </g>
    </g>
    <g id="text_12">
     <!-- Energy (eV) -->
     <g transform="translate(18.7775 216.59875)rotate(-90)scale(0.16 -0.16)">
      <defs>
       <path d="M 638 0 
L 638 4275 
L 3388 4275 
L 3388 3838 
L 1188 3838 
L 1188 2444 
L 3025 2444 
L 3025 2006 
L 1188 2006 
L 1188 438 
L 3506 438 
L 3506 0 
L 638 0 
z
" id="Seaford-45" transform="scale(0.015625)"/>
       <path d="M 741 2809 
Q 909 2959 1121 3039 
Q 1334 3119 1563 3119 
Q 1863 3119 2117 2998 
Q 2372 2878 2528 2666 
Q 2800 2944 2912 3019 
Q 3025 3094 3150 3094 
Q 3184 3094 3226 3083 
Q 3269 3072 3300 3056 
L 3300 2625 
Q 3125 2625 2958 2592 
Q 2791 2559 2631 2494 
Q 2675 2397 2697 2295 
Q 2719 2194 2719 2088 
Q 2719 1872 2620 1667 
Q 2522 1463 2344 1306 
Q 2175 1156 1962 1075 
Q 1750 994 1525 994 
Q 1413 994 1302 1012 
Q 1191 1031 1084 1069 
Q 1025 963 1000 900 
Q 975 838 975 781 
Q 975 706 1059 659 
Q 1144 613 1356 569 
L 2425 344 
Q 2816 263 2995 103 
Q 3175 -56 3175 -331 
Q 3175 -566 3003 -772 
Q 2831 -978 2522 -1116 
Q 2300 -1216 2031 -1267 
Q 1763 -1319 1469 -1319 
Q 828 -1319 436 -1106 
Q 44 -894 44 -556 
Q 44 -388 169 -255 
Q 294 -122 822 222 
Q 644 294 550 405 
Q 456 516 456 650 
Q 456 744 534 851 
Q 613 959 831 1197 
Q 613 1338 491 1556 
Q 369 1775 369 2025 
Q 369 2244 466 2448 
Q 563 2653 741 2809 
z
M 1525 2781 
Q 1250 2781 1069 2579 
Q 888 2378 888 2081 
Q 888 1766 1081 1548 
Q 1275 1331 1563 1331 
Q 1834 1331 2017 1532 
Q 2200 1734 2200 2031 
Q 2200 2350 2008 2565 
Q 1816 2781 1525 2781 
z
M 588 -488 
Q 588 -713 833 -838 
Q 1078 -963 1513 -963 
Q 2003 -963 2323 -800 
Q 2644 -638 2644 -406 
Q 2644 -275 2555 -209 
Q 2466 -144 2250 -100 
L 1153 134 
Q 772 -159 680 -267 
Q 588 -375 588 -488 
z
" id="Seaford-67" transform="scale(0.015625)"/>
       <path d="M 3063 3063 
L 1325 -1250 
L 781 -1250 
L 1381 100 
L 188 3063 
L 738 3063 
L 1644 697 
L 2519 3063 
L 3063 3063 
z
" id="Seaford-79" transform="scale(0.015625)"/>
      </defs>
      <use xlink:href="#Seaford-45"/>
      <use x="59.863281" xlink:href="#Seaford-6e"/>
      <use x="115.820312" xlink:href="#Seaford-65"/>
      <use x="166.992188" xlink:href="#Seaford-72"/>
      <use x="203.003906" xlink:href="#Seaford-67"/>
      <use x="256.140625" xlink:href="#Seaford-79"/>
      <use x="306.824219" xlink:href="#Seaford-20"/>
      <use x="330.457031" xlink:href="#Seaford-28"/>
      <use x="364.699219" xlink:href="#Seaford-65"/>
      <use x="411.496094" xlink:href="#Seaford-56"/>
      <use x="480.464844" xlink:href="#Seaford-29"/>
     </g>
    </g>
   </g>
   <g id="line2d_19">
    <path clip-path="url(#pb3f67dee0f)" d="M 88.638182 241.468418 
L 114.001818 200.997982 
L 139.365455 224.82433 
L 164.729091 231.0704 
L 190.092727 237.376131 
L 215.456364 255.677817 
L 240.82 287.880154 
L 266.183636 298.845455 
L 291.547273 205.490001 
L 316.910909 143.147133 
L 342.274545 97.038677 
L 367.638182 113.847829 
L 393.001818 51.754545 
" style="fill:none;stroke:#80deb9;stroke-linecap:square;"/>
    <defs>
     <path d="M 0 3 
C 0.795609 3 1.55874 2.683901 2.12132 2.12132 
C 2.683901 1.55874 3 0.795609 3 0 
C 3 -0.795609 2.683901 -1.55874 2.12132 -2.12132 
C 1.55874 -2.683901 0.795609 -3 0 -3 
C -0.795609 -3 -1.55874 -2.683901 -2.12132 -2.12132 
C -2.683901 -1.55874 -3 -0.795609 -3 0 
C -3 0.795609 -2.683901 1.55874 -2.12132 2.12132 
C -1.55874 2.683901 -0.795609 3 0 3 
z
" id="m771eef22f9" style="stroke:#80deb9;"/>
    </defs>
    <g clip-path="url(#pb3f67dee0f)">
     <use style="fill:#80deb9;stroke:#80deb9;" x="88.638182" xlink:href="#m771eef22f9" y="241.468418"/>
     <use style="fill:#80deb9;stroke:#80deb9;" x="114.001818" xlink:href="#m771eef22f9" y="200.997982"/>
     <use style="fill:#80deb9;stroke:#80deb9;" x="139.365455" xlink:href="#m771eef22f9" y="224.82433"/>
     <use style="fill:#80deb9;stroke:#80deb9;" x="164.729091" xlink:href="#m771eef22f9" y="231.0704"/>
     <use style="fill:#80deb9;stroke:#80deb9;" x="190.092727" xlink:href="#m771eef22f9" y="237.376131"/>
     <use style="fill:#80deb9;stroke:#80deb9;" x="215.456364" xlink:href="#m771eef22f9" y="255.677817"/>
     <use style="fill:#80deb9;stroke:#80deb9;" x="240.82" xlink:href="#m771eef22f9" y="287.880154"/>
     <use style="fill:#80deb9;stroke:#80deb9;" x="266.183636" xlink:href="#m771eef22f9" y="298.845455"/>
     <use style="fill:#80deb9;stroke:#80deb9;" x="291.547273" xlink:href="#m771eef22f9" y="205.490001"/>
     <use style="fill:#80deb9;stroke:#80deb9;" x="316.910909" xlink:href="#m771eef22f9" y="143.147133"/>
     <use style="fill:#80deb9;stroke:#80deb9;" x="342.274545" xlink:href="#m771eef22f9" y="97.038677"/>
     <use style="fill:#80deb9;stroke:#80deb9;" x="367.638182" xlink:href="#m771eef22f9" y="113.847829"/>
     <use style="fill:#80deb9;stroke:#80deb9;" x="393.001818" xlink:href="#m771eef22f9" y="51.754545"/>
    </g>
   </g>
   <g id="line2d_20">
    <defs>
     <path d="M 0 6.363961 
L 3.818377 0 
L 0 -6.363961 
L -3.818377 0 
z
" id="m0093635411" style="stroke:#80deb9;stroke-linejoin:miter;"/>
    </defs>
    <g clip-path="url(#pb3f67dee0f)">
     <use style="fill:#80deb9;stroke:#80deb9;stroke-linejoin:miter;" x="240.82" xlink:href="#m0093635411" y="66.963773"/>
    </g>
   </g>
   <g id="patch_3">
    <path d="M 73.42 311.2 
L 73.42 39.4 
" style="fill:none;stroke:#000000;stroke-linecap:square;stroke-linejoin:miter;stroke-width:0.8;"/>
   </g>
   <g id="patch_4">
    <path d="M 408.22 311.2 
L 408.22 39.4 
" style="fill:none;stroke:#000000;stroke-linecap:square;stroke-linejoin:miter;stroke-width:0.8;"/>
   </g>
   <g id="patch_5">
    <path d="M 73.42 311.2 
L 408.22 311.2 
" style="fill:none;stroke:#000000;stroke-linecap:square;stroke-linejoin:miter;stroke-width:0.8;"/>
   </g>
   <g id="patch_6">
    <path d="M 73.42 39.4 
L 408.22 39.4 
" style="fill:none;stroke:#000000;stroke-linecap:square;stroke-linejoin:miter;stroke-width:0.8;"/>
   </g>
   <g id="text_13">
    <!-- V$_{Cd}^{-1}$ -->
    <g transform="translate(225.22 24.4)scale(0.2 -0.2)">
     <use transform="translate(0 0.151563)" xlink:href="#Seaford-56"/>
     <use transform="translate(68.806289 38.279688)scale(0.7)" xlink:href="#Seaford-2212"/>
     <use transform="translate(105.720352 38.279688)scale(0.7)" xlink:href="#Seaford-31"/>
     <use transform="translate(68.806289 -23.778125)scale(0.7)" xlink:href="#Seaford-43"/>
     <use transform="translate(115.290664 -23.778125)scale(0.7)" xlink:href="#Seaford-64"/>
    </g>
   </g>
   <g id="legend_1">
    <g id="line2d_21">
     <path d="M 85.12 55.753594 
L 100.72 55.753594 
" style="fill:none;stroke:#80deb9;stroke-linecap:square;"/>
    </g>
    <g id="line2d_22">
     <g>
      <use style="fill:#80deb9;stroke:#80deb9;" x="92.92" xlink:href="#m771eef22f9" y="55.753594"/>
     </g>
    </g>
    <g id="text_14">
     <!-- BDM: 1 Te -->
     <g transform="translate(111.12 60.303594)scale(0.13 -0.13)">
      <defs>
       <path d="M 769 2350 
Q 600 2350 487 2462 
Q 375 2575 375 2750 
Q 375 2925 487 3037 
Q 600 3150 769 3150 
Q 938 3150 1050 3037 
Q 1163 2925 1163 2750 
Q 1163 2575 1050 2462 
Q 938 2350 769 2350 
z
M 769 -88 
Q 600 -88 487 25 
Q 375 138 375 313 
Q 375 488 487 600 
Q 600 713 769 713 
Q 938 713 1050 600 
Q 1163 488 1163 313 
Q 1163 138 1050 25 
Q 938 -88 769 -88 
z
" id="Seaford-3a" transform="scale(0.015625)"/>
      </defs>
      <use xlink:href="#Seaford-42"/>
      <use x="63.183594" xlink:href="#Seaford-44"/>
      <use x="137.109375" xlink:href="#Seaford-4d"/>
      <use x="232.421875" xlink:href="#Seaford-3a"/>
      <use x="256.445312" xlink:href="#Seaford-20"/>
      <use x="280.078125" xlink:href="#Seaford-31"/>
      <use x="332.8125" xlink:href="#Seaford-20"/>
      <use x="355.945312" xlink:href="#Seaford-54"/>
      <use x="411.367188" xlink:href="#Seaford-65"/>
     </g>
    </g>
    <g id="line2d_23"/>
    <g id="line2d_24">
     <g>
      <use style="fill:#80deb9;stroke:#80deb9;stroke-linejoin:miter;" x="92.92" xlink:href="#m0093635411" y="73.99625"/>
     </g>
    </g>
    <g id="text_15">
     <!-- Unperturbed -->
     <g transform="translate(111.12 78.54625)scale(0.13 -0.13)">
      <defs>
       <path d="M 4088 4275 
L 4088 1706 
Q 4088 844 3633 378 
Q 3178 -88 2338 -88 
Q 1472 -88 1023 376 
Q 575 841 575 1738 
L 575 4275 
L 1125 4275 
L 1125 1725 
Q 1125 1066 1440 720 
Q 1756 375 2363 375 
Q 2963 375 3278 704 
Q 3594 1034 3594 1663 
L 3594 4275 
L 4088 4275 
z
" id="Seaford-55" transform="scale(0.015625)"/>
       <path d="M 1031 -1250 
L 519 -1250 
L 519 3063 
L 1031 3063 
L 1031 2803 
Q 1281 2975 1484 3050 
Q 1688 3125 1888 3125 
Q 2466 3125 2833 2722 
Q 3200 2319 3200 1663 
Q 3200 1300 3081 990 
Q 2963 681 2734 450 
Q 2503 213 2189 81 
Q 1875 -50 1538 -50 
Q 1394 -50 1269 -37 
Q 1144 -25 1031 0 
L 1031 -1250 
z
M 1463 350 
Q 1988 350 2325 701 
Q 2663 1053 2663 1625 
Q 2663 2116 2422 2402 
Q 2181 2688 1763 2688 
Q 1575 2688 1414 2639 
Q 1253 2591 1031 2463 
L 1031 403 
Q 1141 375 1248 362 
Q 1356 350 1463 350 
z
" id="Seaford-70" transform="scale(0.015625)"/>
       <path d="M 1363 -63 
Q 963 -63 734 182 
Q 506 428 506 863 
L 506 3063 
L 1019 3063 
L 1019 1006 
Q 1019 716 1159 558 
Q 1300 400 1563 400 
Q 1744 400 1961 497 
Q 2178 594 2550 853 
L 2550 3063 
L 3063 3063 
L 3063 0 
L 2550 0 
L 2550 506 
Q 2138 194 1863 65 
Q 1588 -63 1363 -63 
z
" id="Seaford-75" transform="scale(0.015625)"/>
       <path d="M 1400 -50 
Q 1153 -50 956 -25 
Q 759 0 519 63 
L 519 4531 
L 1031 4531 
L 1031 2803 
Q 1281 2975 1490 3050 
Q 1700 3125 1913 3125 
Q 2481 3125 2840 2725 
Q 3200 2325 3200 1681 
Q 3200 1288 3072 966 
Q 2944 644 2694 413 
Q 2453 188 2118 69 
Q 1784 -50 1400 -50 
z
M 2663 1644 
Q 2663 2128 2423 2408 
Q 2184 2688 1763 2688 
Q 1575 2688 1414 2639 
Q 1253 2591 1031 2463 
L 1031 384 
Q 1113 366 1194 358 
Q 1275 350 1363 350 
Q 1959 350 2311 695 
Q 2663 1041 2663 1644 
z
" id="Seaford-62" transform="scale(0.015625)"/>
      </defs>
      <use xlink:href="#Seaford-55"/>
      <use x="72.851562" xlink:href="#Seaford-6e"/>
      <use x="128.808594" xlink:href="#Seaford-70"/>
      <use x="183.300781" xlink:href="#Seaford-65"/>
      <use x="234.472656" xlink:href="#Seaford-72"/>
      <use x="271.484375" xlink:href="#Seaford-74"/>
      <use x="309.667969" xlink:href="#Seaford-75"/>
      <use x="365.625" xlink:href="#Seaford-72"/>
      <use x="402.636719" xlink:href="#Seaford-62"/>
      <use x="457.128906" xlink:href="#Seaford-65"/>
      <use x="508.800781" xlink:href="#Seaford-64"/>
     </g>
    </g>
   </g>
  </g>
 </g>
 <defs>
  <clipPath id="pb3f67dee0f">
   <rect height="271.8" width="334.8" x="73.42" y="39.4"/>
  </clipPath>
 </defs>
</svg>
